<svg width="196" height="220" viewBox="0 0 196 220" fill="none" xmlns="http://www.w3.org/2000/svg">
<path fill-rule="evenodd" clip-rule="evenodd" d="M142.55 104.59C142.55 108.89 139.15 112.29 134.85 112.29C133.55 112.29 132.35 111.89 131.35 111.39L110.75 151.99C116.05 153.59 119.85 158.59 119.85 164.39C119.85 171.59 114.05 177.49 106.85 177.49C99.6498 177.49 93.8498 171.59 93.8498 164.39C93.8498 158.09 98.3498 152.79 104.35 151.59V117.39C101.75 119.19 98.5498 120.29 95.1498 120.29H65.0498L42.5498 164.89C37.0498 175.79 23.7498 179.99 12.8498 174.59L12.2498 174.29C1.34981 168.79 -3.1502 155.39 2.3498 144.49L64.8498 19.69C70.3498 8.68999 83.6498 4.18999 94.5498 9.68999H95.1498C105.05 14.69 109.65 25.69 106.35 35.79V95.29C109.45 98.09 111.45 101.89 111.45 105.59C111.45 109.29 109.45 113.09 106.35 115.89V151.39C106.483 151.39 106.65 151.39 106.85 151.39C107.583 151.39 108.283 151.457 108.95 151.59L129.85 110.29C128.25 108.89 127.25 106.89 127.25 104.59C127.25 100.39 130.65 96.99 134.85 96.99C135.45 96.99 135.983 97.0233 136.45 97.09L166.75 37.19C160.95 33.99 156.95 27.69 156.95 20.59C156.95 10.09 165.55 1.48999 176.05 1.48999C186.55 1.48999 195.05 10.09 195.05 20.59C195.05 31.09 186.55 39.59 176.05 39.59C173.35 39.59 170.75 39.09 168.45 37.99L138.25 97.69C140.75 98.99 142.55 101.59 142.55 104.59ZM104.35 93.79V40.29L78.5498 90.89H95.1498C98.5498 90.89 101.75 91.99 104.35 93.79Z" fill="url(#paint0_linear_1_7)"/>
<path d="M175.95 49.99H175.55C167.15 50.19 160.35 57.09 160.55 65.59L162.25 161.69C162.45 170.09 169.45 176.79 177.85 176.69H178.25C186.75 176.49 193.45 169.59 193.25 161.09L191.55 64.99C191.35 56.59 184.45 49.79 175.95 49.99Z" fill="url(#paint1_linear_1_7)"/>
<mask id="mask0_1_7" style="mask-type:luminance" maskUnits="userSpaceOnUse" x="0" y="7" width="112" height="171">
<path d="M95.1498 91.02H78.5798L105.06 39.11C110.55 28.16 106.12 15.32 95.1798 9.83999L94.5898 9.78C83.6498 4.3 70.3298 8.83999 64.8498 19.79L2.35981 144.58C-3.12019 155.52 1.29981 168.87 12.2498 174.35L12.8298 174.66C23.7698 180.14 37.0898 175.94 42.5698 165L65.0398 120.38H95.1498C104.13 120.38 111.4 112.84 111.4 105.7C111.4 98.55 104.13 91.02 95.1498 91.02Z" fill="white"/>
</mask>
<g mask="url(#mask0_1_7)">
<path fill-rule="evenodd" clip-rule="evenodd" d="M139.95 113.79C119.05 175.69 51.9499 209.09 -10.0501 188.19C-71.9501 167.39 -105.25 100.19 -84.4501 38.29C-63.6501 -23.71 3.54984 -57.01 65.4498 -36.21C127.45 -15.31 160.75 51.79 139.95 113.79ZM91.0499 97.29C102.85 62.39 83.9499 24.49 49.0499 12.69C14.0499 0.990003 -23.8501 19.79 -35.5501 54.69C-47.3501 89.69 -28.5501 127.59 6.44986 139.29C41.3499 151.09 79.2499 132.29 91.0499 97.29Z" fill="url(#paint2_linear_1_7)"/>
<path style="mix-blend-mode:color-dodge" opacity="0.4" fill-rule="evenodd" clip-rule="evenodd" d="M114.45 143.89C95.5498 200.19 34.5499 230.39 -21.7501 211.49C-78.0501 192.59 -108.35 131.59 -89.3501 75.29C-70.4501 18.99 -9.45013 -11.31 46.8499 7.58999C103.15 26.59 133.35 87.59 114.45 143.89ZM70.0499 128.89C80.7499 97.19 63.6499 62.69 31.8499 52.09C0.149853 41.39 -34.3502 58.49 -44.9502 90.19C-55.6502 121.99 -38.5501 156.39 -6.85014 167.09C24.9499 177.79 59.3499 160.69 70.0499 128.89Z" fill="url(#paint3_radial_1_7)"/>
<path style="mix-blend-mode:soft-light" fill-rule="evenodd" clip-rule="evenodd" d="M144.75 63.69C120.75 134.99 43.5498 173.29 -27.7502 149.29C-98.9502 125.39 -137.35 48.19 -113.35 -23.11C-89.3502 -94.41 -12.1502 -132.71 59.0498 -108.71C130.35 -84.81 168.65 -7.61002 144.75 63.69ZM88.4498 44.79C102.05 4.58998 80.3498 -39.01 40.1498 -52.51C-0.0501747 -66.01 -43.6502 -44.41 -57.1502 -4.21002C-70.6502 35.99 -49.0502 79.59 -8.85017 93.09C31.4498 106.59 74.9498 84.99 88.4498 44.79Z" fill="url(#paint4_linear_1_7)"/>
</g>
<mask id="mask1_1_7" style="mask-type:luminance" maskUnits="userSpaceOnUse" x="157" y="0" width="39" height="176">
<path d="M194.16 159.59C194.32 168.02 187.6 174.98 179.17 175.14L178.72 175.15C170.28 175.3 163.32 168.59 163.17 160.15L161.41 64.02C161.25 55.58 167.97 48.62 176.41 48.46H176.86C185.29 48.3 192.25 55.01 192.41 63.45L194.16 159.59ZM195.96 19.04C195.96 29.56 187.43 38.09 176.91 38.09C166.39 38.09 157.86 29.56 157.86 19.04C157.86 8.52 166.39 0 176.91 0C187.43 0 195.96 8.52 195.96 19.04Z" fill="white"/>
</mask>
<g mask="url(#mask1_1_7)">
<path fill-rule="evenodd" clip-rule="evenodd" d="M360.75 98.9899C339.25 162.99 269.95 197.39 205.95 175.89C141.95 154.39 107.55 84.99 129.05 21.09C150.55 -42.91 219.95 -77.41 283.95 -55.81C347.85 -34.31 382.35 34.9899 360.75 98.9899ZM310.35 81.9899C322.45 45.8899 303.05 6.78995 266.95 -5.41005C230.85 -17.51 191.65 1.88995 179.55 37.99C167.35 74.09 186.85 113.29 222.95 125.39C259.05 137.59 298.15 118.09 310.35 81.9899Z" fill="url(#paint5_linear_1_7)"/>
<path style="mix-blend-mode:color-dodge" opacity="0.4" fill-rule="evenodd" clip-rule="evenodd" d="M334.55 130.09C314.95 188.19 251.95 219.49 193.85 199.99C135.65 180.39 104.35 117.39 123.95 59.29C143.55 1.09 206.55 -30.21 264.65 -10.61C322.75 8.99 354.05 71.89 334.55 130.09ZM288.65 114.69C299.65 81.79 282.05 46.29 249.25 35.29C216.45 24.19 180.85 41.89 169.85 74.69C158.75 107.49 176.45 142.99 209.25 154.09C242.05 165.09 277.65 147.49 288.65 114.69Z" fill="url(#paint6_radial_1_7)"/>
<path style="mix-blend-mode:soft-light" fill-rule="evenodd" clip-rule="evenodd" d="M365.75 47.29C340.95 120.89 261.25 160.49 187.65 135.69C114.05 110.99 74.4498 31.19 99.2498 -42.41C123.95 -116.01 203.75 -155.61 277.35 -130.81C350.95 -106.01 390.55 -26.31 365.75 47.29ZM307.65 27.79C321.65 -13.81 299.35 -58.81 257.75 -72.71C216.25 -86.71 171.25 -64.41 157.25 -22.81C143.35 18.69 165.65 63.69 207.15 77.69C248.75 91.59 293.75 69.29 307.65 27.79Z" fill="url(#paint7_linear_1_7)"/>
</g>
<path d="M17 209.2H19.2V218.9H17V209.2Z" fill="url(#paint8_linear_1_7)"/>
<path d="M36 209.2V218.9H34.2L29.3 213V218.9H27.1V209.2H29L33.8 215.1V209.2H36Z" fill="url(#paint9_linear_1_7)"/>
<path d="M45.9 211H42.8V209.2H51.3V211H48.2V218.9H45.9V211Z" fill="url(#paint10_linear_1_7)"/>
<path d="M65.6 217.1V218.9H58.1V209.2H65.4V211H60.3V213.1H64.8V214.9H60.3V217.1H65.6Z" fill="url(#paint11_linear_1_7)"/>
<path d="M72.9 209.2H75.2V217.1H80.1V218.9H72.9V209.2Z" fill="url(#paint12_linear_1_7)"/>
<path d="M86.9 209.2H89.2V217.1H94V218.9H86.9V209.2Z" fill="url(#paint13_linear_1_7)"/>
<path d="M100.9 209.2H103.1V218.9H100.9V209.2Z" fill="url(#paint14_linear_1_7)"/>
<path d="M117.6 213.9H119.6V217.9C118.6 218.7 117.1 219.1 115.7 219.1C112.6 219.1 110.4 217 110.4 214.1C110.4 211.1 112.6 209 115.7 209C117.4 209 118.9 209.6 119.8 210.7L118.4 212C117.7 211.3 116.8 210.9 115.8 210.9C114 210.9 112.7 212.2 112.7 214.1C112.7 215.9 114 217.2 115.8 217.2C116.4 217.2 117 217.1 117.6 216.8V213.9Z" fill="url(#paint15_linear_1_7)"/>
<path d="M134.8 217.1V218.9H127.3V209.2H134.6V211H129.5V213.1H134V214.9H129.5V217.1H134.8Z" fill="url(#paint16_linear_1_7)"/>
<path d="M151.1 209.2V218.9H149.2L144.4 213V218.9H142.2V209.2H144L148.9 215.1V209.2H151.1Z" fill="url(#paint17_linear_1_7)"/>
<path d="M158.3 214.1C158.3 211.1 160.6 209 163.6 209C165.3 209 166.7 209.6 167.6 210.8L166.2 212.1C165.533 211.367 164.7 210.967 163.7 210.9C161.9 210.9 160.6 212.2 160.6 214.1C160.6 215.9 161.9 217.2 163.7 217.2C164.7 217.2 165.533 216.8 166.2 216L167.6 217.4C166.7 218.5 165.3 219.1 163.6 219.1C160.6 219.1 158.3 217 158.3 214.1Z" fill="url(#paint18_linear_1_7)"/>
<path d="M182.3 217.1V218.9H174.7V209.2H182.1V211H177V213.1H181.5V214.9H177V217.1H182.3Z" fill="url(#paint19_linear_1_7)"/>
<path d="M18.8285 200H16.3569L20.1229 189.091H23.0952L26.8558 200H24.3842L21.6516 191.584H21.5664L18.8285 200ZM18.674 195.712H24.5121V197.512H18.674V195.712ZM28.1689 200V189.091H32.4728C33.2967 189.091 33.9998 189.238 34.5822 189.533C35.1681 189.824 35.6138 190.238 35.9192 190.774C36.2282 191.307 36.3826 191.934 36.3826 192.654C36.3826 193.379 36.2264 194.002 35.9139 194.524C35.6014 195.043 35.1486 195.44 34.5556 195.717C33.9661 195.994 33.2523 196.133 32.4142 196.133H29.5325V194.279H32.0414C32.4817 194.279 32.8475 194.219 33.1387 194.098C33.4299 193.977 33.6465 193.796 33.7885 193.555C33.9341 193.313 34.0069 193.013 34.0069 192.654C34.0069 192.292 33.9341 191.987 33.7885 191.738C33.6465 191.49 33.4281 191.301 33.1333 191.174C32.8422 191.042 32.4746 190.977 32.0307 190.977H30.4753V200H28.1689ZM34.0602 195.036L36.7715 200H34.2253L31.5726 195.036H34.0602ZM37.5971 190.993V189.091H46.5566V190.993H43.2168V200H40.937V190.993H37.5971ZM50.3386 189.091V200H48.0321V189.091H50.3386ZM52.2362 200V189.091H59.4593V190.993H54.5427V193.592H58.9798V195.494H54.5427V200H52.2362ZM63.3171 189.091V200H61.0107V189.091H63.3171ZM74.8401 192.91H72.507C72.4644 192.608 72.3774 192.34 72.246 192.106C72.1146 191.868 71.9459 191.665 71.74 191.499C71.534 191.332 71.2961 191.204 71.0262 191.115C70.7599 191.026 70.4704 190.982 70.1579 190.982C69.5933 190.982 69.1015 191.122 68.6824 191.403C68.2634 191.68 67.9385 192.085 67.7077 192.617C67.4768 193.146 67.3614 193.789 67.3614 194.545C67.3614 195.323 67.4768 195.977 67.7077 196.506C67.942 197.035 68.2687 197.434 68.6878 197.704C69.1068 197.974 69.5915 198.109 70.142 198.109C70.4509 198.109 70.7368 198.068 70.9996 197.987C71.2659 197.905 71.502 197.786 71.708 197.63C71.914 197.47 72.0844 197.276 72.2194 197.049C72.3579 196.822 72.4537 196.562 72.507 196.271L74.8401 196.282C74.7797 196.783 74.6288 197.266 74.3873 197.731C74.1494 198.192 73.828 198.606 73.4232 198.972C73.0219 199.334 72.5425 199.622 71.985 199.835C71.431 200.044 70.8042 200.149 70.1047 200.149C69.1317 200.149 68.2616 199.929 67.4946 199.489C66.7311 199.048 66.1274 198.411 65.6835 197.576C65.2432 196.742 65.023 195.732 65.023 194.545C65.023 193.356 65.2467 192.344 65.6942 191.509C66.1416 190.675 66.7488 190.039 67.5159 189.602C68.2829 189.162 69.1459 188.942 70.1047 188.942C70.7368 188.942 71.3227 189.031 71.8625 189.208C72.4058 189.386 72.887 189.645 73.306 189.986C73.7251 190.323 74.066 190.737 74.3287 191.227C74.5951 191.717 74.7655 192.278 74.8401 192.91ZM78.8005 189.091V200H76.4941V189.091H78.8005ZM82.5785 200H80.1069L83.8729 189.091H86.8452L90.6058 200H88.1342L85.4016 191.584H85.3164L82.5785 200ZM82.424 195.712H88.2621V197.512H82.424V195.712ZM91.9189 200V189.091H94.2253V198.098H98.9022V200H91.9189Z" fill="white"/>
<defs>
<linearGradient id="paint0_linear_1_7" x1="0.00780104" y1="1.53199" x2="195.094" y2="1.53199" gradientUnits="userSpaceOnUse">
<stop stop-color="#FF5B91"/>
<stop offset="1" stop-color="#7C0EFF"/>
</linearGradient>
<linearGradient id="paint1_linear_1_7" x1="160.539" y1="49.995" x2="193.293" y2="49.995" gradientUnits="userSpaceOnUse">
<stop stop-color="#FF5B91"/>
<stop offset="1" stop-color="#7C0EFF"/>
</linearGradient>
<linearGradient id="paint2_linear_1_7" x1="-510.285" y1="174.033" x2="139.697" y2="-173.6" gradientUnits="userSpaceOnUse">
<stop stop-color="#BAF257"/>
<stop offset="0.471" stop-color="#FF74C8"/>
<stop offset="1" stop-color="#8081F2"/>
</linearGradient>
<radialGradient id="paint3_radial_1_7" cx="0" cy="0" r="1" gradientUnits="userSpaceOnUse" gradientTransform="translate(12.5369 109.57) rotate(18.5906) scale(107.543 107.543)">
<stop offset="0.769"/>
<stop offset="1" stop-color="#575757"/>
</radialGradient>
<linearGradient id="paint4_linear_1_7" x1="-613.749" y1="138.702" x2="88.6187" y2="-236.949" gradientUnits="userSpaceOnUse">
<stop stop-color="#AE7EFF"/>
<stop offset="0.471" stop-color="#FF5BE6"/>
<stop offset="0.99" stop-color="#FFDE72"/>
</linearGradient>
<linearGradient id="paint5_linear_1_7" x1="-310.744" y1="161.242" x2="360.563" y2="-197.796" gradientUnits="userSpaceOnUse">
<stop stop-color="#BAF257"/>
<stop offset="0.471" stop-color="#FF74C8"/>
<stop offset="1" stop-color="#8081F2"/>
</linearGradient>
<radialGradient id="paint6_radial_1_7" cx="0" cy="0" r="1" gradientUnits="userSpaceOnUse" gradientTransform="translate(229.235 94.664) rotate(18.5907) scale(111.074 111.074)">
<stop offset="0.769"/>
<stop offset="1" stop-color="#575757"/>
</radialGradient>
<linearGradient id="paint7_linear_1_7" x1="-417.599" y1="124.75" x2="307.812" y2="-263.225" gradientUnits="userSpaceOnUse">
<stop stop-color="#AE7EFF"/>
<stop offset="0.471" stop-color="#FF5BE6"/>
<stop offset="0.99" stop-color="#FFDE72"/>
</linearGradient>
<linearGradient id="paint8_linear_1_7" x1="16.979" y1="209.196" x2="19.233" y2="209.196" gradientUnits="userSpaceOnUse">
<stop stop-color="#FFA4DD"/>
<stop offset="1" stop-color="#FF5B9D"/>
</linearGradient>
<linearGradient id="paint9_linear_1_7" x1="27.102" y1="209.196" x2="36.036" y2="209.196" gradientUnits="userSpaceOnUse">
<stop stop-color="#FFA4DD"/>
<stop offset="1" stop-color="#FF5B9D"/>
</linearGradient>
<linearGradient id="paint10_linear_1_7" x1="42.799" y1="209.196" x2="51.288" y2="209.196" gradientUnits="userSpaceOnUse">
<stop stop-color="#FFA4DD"/>
<stop offset="1" stop-color="#FF5B9D"/>
</linearGradient>
<linearGradient id="paint11_linear_1_7" x1="58.054" y1="209.196" x2="65.596" y2="209.196" gradientUnits="userSpaceOnUse">
<stop stop-color="#FFA4DD"/>
<stop offset="1" stop-color="#FF5B9D"/>
</linearGradient>
<linearGradient id="paint12_linear_1_7" x1="72.946" y1="209.196" x2="80.085" y2="209.196" gradientUnits="userSpaceOnUse">
<stop stop-color="#FFA4DD"/>
<stop offset="1" stop-color="#FF5B9D"/>
</linearGradient>
<linearGradient id="paint13_linear_1_7" x1="86.905" y1="209.196" x2="94.044" y2="209.196" gradientUnits="userSpaceOnUse">
<stop stop-color="#FFA4DD"/>
<stop offset="1" stop-color="#FF5B9D"/>
</linearGradient>
<linearGradient id="paint14_linear_1_7" x1="100.866" y1="209.196" x2="103.12" y2="209.196" gradientUnits="userSpaceOnUse">
<stop stop-color="#FFA4DD"/>
<stop offset="1" stop-color="#FF5B9D"/>
</linearGradient>
<linearGradient id="paint15_linear_1_7" x1="110.376" y1="209.029" x2="119.811" y2="209.029" gradientUnits="userSpaceOnUse">
<stop stop-color="#FFA4DD"/>
<stop offset="1" stop-color="#FF5B9D"/>
</linearGradient>
<linearGradient id="paint16_linear_1_7" x1="127.272" y1="209.196" x2="134.814" y2="209.196" gradientUnits="userSpaceOnUse">
<stop stop-color="#FFA4DD"/>
<stop offset="1" stop-color="#FF5B9D"/>
</linearGradient>
<linearGradient id="paint17_linear_1_7" x1="142.163" y1="209.196" x2="151.097" y2="209.196" gradientUnits="userSpaceOnUse">
<stop stop-color="#FFA4DD"/>
<stop offset="1" stop-color="#FF5B9D"/>
</linearGradient>
<linearGradient id="paint18_linear_1_7" x1="158.348" y1="209.029" x2="167.644" y2="209.029" gradientUnits="userSpaceOnUse">
<stop stop-color="#FFA4DD"/>
<stop offset="1" stop-color="#FF5B9D"/>
</linearGradient>
<linearGradient id="paint19_linear_1_7" x1="174.714" y1="209.196" x2="182.256" y2="209.196" gradientUnits="userSpaceOnUse">
<stop stop-color="#FFA4DD"/>
<stop offset="1" stop-color="#FF5B9D"/>
</linearGradient>
</defs>
</svg>
